<mxfile host="app.diagrams.net" modified="2022-08-02T21:40:38.375Z" agent="5.0 (X11)" etag="ejhVZ0ZQKmGqsidpowon" version="20.2.2" type="github">
  <diagram id="Rtj_xhAMCjtNW2K5r0i-" name="Page-1">
    <mxGraphModel dx="2912" dy="2247" grid="1" gridSize="10" guides="1" tooltips="1" connect="1" arrows="1" fold="1" page="1" pageScale="1" pageWidth="850" pageHeight="1100" math="0" shadow="0">
      <root>
        <mxCell id="0" />
        <mxCell id="1" parent="0" />
        <mxCell id="cmLPi3Eq9WUsnecLFcOw-14" value="" style="rounded=0;whiteSpace=wrap;html=1;verticalAlign=top;" vertex="1" parent="1">
          <mxGeometry x="-550" y="90" width="420" height="390" as="geometry" />
        </mxCell>
        <mxCell id="cmLPi3Eq9WUsnecLFcOw-10" value="other" style="shape=cylinder3;whiteSpace=wrap;html=1;boundedLbl=1;backgroundOutline=1;size=15;" vertex="1" parent="1">
          <mxGeometry x="-674" y="225" width="91" height="50" as="geometry" />
        </mxCell>
        <mxCell id="cmLPi3Eq9WUsnecLFcOw-11" value="other" style="shape=cylinder3;whiteSpace=wrap;html=1;boundedLbl=1;backgroundOutline=1;size=15;" vertex="1" parent="1">
          <mxGeometry x="-674" y="201" width="91" height="50" as="geometry" />
        </mxCell>
        <mxCell id="cmLPi3Eq9WUsnecLFcOw-19" style="edgeStyle=orthogonalEdgeStyle;rounded=0;orthogonalLoop=1;jettySize=auto;html=1;exitX=1;exitY=0.5;exitDx=0;exitDy=0;exitPerimeter=0;" edge="1" parent="1" source="cmLPi3Eq9WUsnecLFcOw-1" target="cmLPi3Eq9WUsnecLFcOw-18">
          <mxGeometry relative="1" as="geometry" />
        </mxCell>
        <mxCell id="cmLPi3Eq9WUsnecLFcOw-1" value="Annotations.tsv" style="shape=cylinder3;whiteSpace=wrap;html=1;boundedLbl=1;backgroundOutline=1;size=15;" vertex="1" parent="1">
          <mxGeometry x="-674" y="162" width="91" height="60" as="geometry" />
        </mxCell>
        <mxCell id="cmLPi3Eq9WUsnecLFcOw-2" value="genes.faa" style="shape=cylinder3;whiteSpace=wrap;html=1;boundedLbl=1;backgroundOutline=1;size=15;" vertex="1" parent="1">
          <mxGeometry x="-674" y="120" width="91" height="60" as="geometry" />
        </mxCell>
        <mxCell id="cmLPi3Eq9WUsnecLFcOw-4" style="edgeStyle=orthogonalEdgeStyle;rounded=0;orthogonalLoop=1;jettySize=auto;html=1;exitX=1;exitY=0.5;exitDx=0;exitDy=0;entryX=0;entryY=0;entryDx=0;entryDy=37.5;entryPerimeter=0;" edge="1" parent="1" target="cmLPi3Eq9WUsnecLFcOw-2">
          <mxGeometry relative="1" as="geometry">
            <mxPoint x="-724" y="170" as="sourcePoint" />
          </mxGeometry>
        </mxCell>
        <mxCell id="cmLPi3Eq9WUsnecLFcOw-5" style="edgeStyle=orthogonalEdgeStyle;rounded=0;orthogonalLoop=1;jettySize=auto;html=1;exitX=1;exitY=0.5;exitDx=0;exitDy=0;" edge="1" parent="1" target="cmLPi3Eq9WUsnecLFcOw-1">
          <mxGeometry relative="1" as="geometry">
            <mxPoint x="-724" y="170" as="sourcePoint" />
          </mxGeometry>
        </mxCell>
        <mxCell id="cmLPi3Eq9WUsnecLFcOw-13" value="&lt;div style=&quot;font-size: 16px;&quot;&gt;&lt;b&gt;Run DRAM&lt;/b&gt;&lt;br&gt;&lt;/div&gt;&lt;div&gt; with no additional arguments&lt;/div&gt;" style="rounded=0;whiteSpace=wrap;html=1;" vertex="1" parent="1">
          <mxGeometry x="-835" y="144" width="125" height="76" as="geometry" />
        </mxCell>
        <mxCell id="cmLPi3Eq9WUsnecLFcOw-17" value="" style="shape=image;html=1;verticalAlign=top;verticalLabelPosition=bottom;labelBackgroundColor=#ffffff;imageAspect=0;aspect=fixed;image=https://cdn1.iconfinder.com/data/icons/material-audio-video/22/loop-128.png" vertex="1" parent="1">
          <mxGeometry x="-510" y="225" width="30" height="30" as="geometry" />
        </mxCell>
        <mxCell id="cmLPi3Eq9WUsnecLFcOw-18" value="Read in annotations" style="rounded=1;whiteSpace=wrap;html=1;" vertex="1" parent="1">
          <mxGeometry x="-537.5" y="148" width="85" height="39" as="geometry" />
        </mxCell>
        <mxCell id="cmLPi3Eq9WUsnecLFcOw-20" value="Read in trees, (hard codes for now) " style="rounded=1;whiteSpace=wrap;html=1;" vertex="1" parent="1">
          <mxGeometry x="-425" y="172" width="130" height="40" as="geometry" />
        </mxCell>
        <mxCell id="cmLPi3Eq9WUsnecLFcOw-22" value="&lt;div style=&quot;font-size: 20px;&quot; align=&quot;center&quot;&gt;&lt;b&gt;Run Tree Kit&lt;/b&gt;&lt;/div&gt;&lt;div align=&quot;center&quot;&gt;Takes only the annotations.tsv and &lt;br&gt;genes.faa and returns an annotations.tsv with the additional columns, tree ids, distance, metric, and difrance metric&lt;br&gt;&lt;/div&gt;&lt;p align=&quot;center&quot;&gt;&lt;/p&gt;" style="text;html=1;strokeColor=none;fillColor=none;spacing=5;spacingTop=-20;whiteSpace=wrap;overflow=hidden;rounded=0;align=center;" vertex="1" parent="1">
          <mxGeometry x="-310" width="260" height="148" as="geometry" />
        </mxCell>
        <mxCell id="cmLPi3Eq9WUsnecLFcOw-26" value="Text" style="text;html=1;strokeColor=none;fillColor=none;align=center;verticalAlign=middle;whiteSpace=wrap;rounded=0;fontSize=20;" vertex="1" parent="1">
          <mxGeometry x="-140" y="-70" width="60" height="30" as="geometry" />
        </mxCell>
      </root>
    </mxGraphModel>
  </diagram>
</mxfile>
